<svg xmlns="http://www.w3.org/2000/svg" viewBox="0 0 96 96" width="96" height="96">
  <rect width="96" height="96" fill="#1a2430"/>
  <path d="M28 96c2-12 9-19 20-19s18 7 20 19z" fill="#243445"/>
  <rect x="34" y="40" width="28" height="34" rx="14" fill="#d4b08c"/>
  <path d="M34 52h28v6H34z" fill="#121820"/>
  <circle cx="42" cy="58" r="2.4" fill="#f2efe8"/>
  <circle cx="54" cy="58" r="2.4" fill="#f2efe8"/>
  <path d="M22 46c0-16 11-26 26-26s26 10 26 26v4H22z" fill="#1f2c3a"/>
  <path d="M30 24c0-8 8-14 18-14s18 6 18 14v4H30z" fill="#c0392b"/>
  <rect x="44" y="10" width="8" height="10" rx="2" fill="#e8c547"/>
  <path d="M60 62c4 1 8 4 10 8l-8 4c-1-3-3-5-6-6z" fill="#c0392b"/>
</svg>
